HIERARCHY
ROOT wrist
{
	OFFSET 0.00 0.00 0.00
	CHANNELS 6 Xposition Yposition Zposition Xrotation Yrotation Zrotation
	JOINT riHand
	{
		OFFSET -0.04598 0.37556 -0.10882
		CHANNELS 3 Xrotation Yrotation Zrotation
		JOINT RiIndexMP
		{
			OFFSET -1.68547 2.46874 -0.24056
			CHANNELS 2 Zrotation Yrotation
			JOINT RiIndexPIP
			{
				OFFSET -0.10277 1.47086 -0.45732
				CHANNELS 1 Yrotation
				JOINT RiIndexDIP
				{
					OFFSET -0.08662 0.93830 -0.07738
					CHANNELS 1 Yrotation
					End Site
					{
						OFFSET -0.08448 0.91520 -0.07547
					}
				}
			}
		}
		JOINT RiMiddleMP
		{
			OFFSET -0.85407 2.65552 -0.00744
			CHANNELS 2 Zrotation Yrotation
			JOINT RiMiddlePIP
			{
				OFFSET -0.20884 1.70284 -0.28882
				CHANNELS 1 Yrotation
				JOINT RiMiddleDIP
				{
					OFFSET -0.14094 1.16203 -0.24202
					CHANNELS 1 Yrotation
					End Site
					{
						OFFSET -0.12231 1.00703 -0.20494
					}
				}
			}
		}
		JOINT RiRingMP
		{
			OFFSET 0.20418 2.54564 0.23484
			CHANNELS 2 Zrotation Yrotation
			JOINT RiRingPIP
			{
				OFFSET -0.04564 1.64840 -0.33154
				CHANNELS 1 Yrotation
				JOINT RiRingDIP
				{
					OFFSET -0.03124 1.12660 -0.26248
					CHANNELS 1 Yrotation
					End Site
					{
						OFFSET -0.02557 0.92313 -0.19419
					}
				}
			}
		}
		JOINT RiPinkyMP
		{
			OFFSET 0.88895 2.32064 0.25776
			CHANNELS 2 Zrotation Yrotation
			JOINT RiPinkyPIP
			{
				OFFSET 0.43367 1.29723 -0.28031
				CHANNELS 1 Yrotation
				JOINT RiPinkyDIP
				{
					OFFSET 0.21745 0.64768 -0.13568
					CHANNELS 1 Yrotation
					End Site
					{
						OFFSET 0.25134 0.74860 -0.15683
					}
				}
			}
		}
		JOINT RiThumbCMC
		{
			OFFSET -1.27353 -0.34685 -0.51300
			CHANNELS 3 Xrotation Yrotation Zrotation
			JOINT RiThumbMP
			{
				OFFSET -0.97380 1.27673 -0.24634
				CHANNELS 1 Zrotation
				JOINT RiThumbIP
				{
					OFFSET -0.70093 0.83226 -0.09447
					CHANNELS 1 Zrotation
					End Site
					{
						OFFSET -0.55464 0.68943 -0.10425
					}
				}
			}
		}
	}
}
MOTION
Frames: 19
Frame Time: 0.008333
 2.8370 49.9460 -6.2523 -126.9226 -70.9595 -171.5001 -12.0445 13.9929 -14.8930 -17.1934 -13.3222 -2.3040 -1.0755 -21.9578 -21.1154 -5.5198 -2.5720 -12.1404 -11.7042 -1.3754 -0.8658 0.1375 7.5924 9.7124 12.1199 -7.4102 -63.3095 -7.1500 -3.0398 -2.0993
 2.7998 49.8695 -6.2693 -127.8148 -70.6640 -172.6764 -12.4770 13.9325 -15.0682 -17.2355 -13.3547 -2.3343 -1.1893 -21.9828 -21.0646 -5.5127 -2.5911 -12.2382 -11.7397 -1.3668 -0.8986 0.0117 7.4354 9.7482 12.1248 -7.9304 -63.0034 -7.7789 -3.2669 -1.5552
 2.7680 49.7943 -6.2829 -127.5560 -70.2665 -172.9137 -12.4069 13.6992 -15.0076 -17.0150 -13.0659 -2.3108 -1.2028 -21.5935 -20.6588 -5.5302 -2.3205 -12.0948 -11.6080 -1.3686 -0.9017 0.0540 7.4587 9.8859 12.1751 -8.6672 -62.8465 -8.7491 -2.9688 -1.1476
 2.7330 49.7280 -6.2956 -127.5276 -69.9919 -173.3872 -12.2317 13.8102 -14.9805 -17.4513 -13.6195 -2.3512 -1.2990 -21.9546 -21.0743 -5.5264 -2.2560 -12.5628 -12.0512 -1.3621 -0.8992 -0.0922 7.3573 9.8556 12.1775 -9.4709 -63.4078 -9.5778 -2.7893 -0.6643
 2.6986 49.6606 -6.3175 -127.1376 -69.6838 -173.3600 -11.9380 13.6655 -15.0321 -16.9376 -13.0111 -2.2692 -0.9545 -21.7266 -20.8960 -5.5231 -2.4435 -12.3324 -11.8522 -1.3581 -0.9034 -0.0288 7.3905 9.9189 12.1937 -9.8673 -63.3788 -10.2754 -2.5625 -0.1971
 2.6633 49.6062 -6.3377 -127.0546 -69.4352 -173.7268 -11.7681 13.6403 -15.0464 -16.9123 -13.0371 -2.2874 -1.0320 -21.4612 -20.6672 -5.5062 -2.4519 -12.2463 -11.7784 -1.3572 -0.8948 0.0110 7.4435 9.8927 12.1938 -10.1510 -63.2934 -10.8569 -2.3929 0.0791
 2.6271 49.5549 -6.3562 -127.2666 -69.1793 -174.2918 -11.7080 13.7253 -15.0215 -16.8927 -13.0700 -2.3038 -1.0561 -21.2568 -20.4236 -5.5064 -2.4280 -12.0241 -11.5449 -1.3509 -0.9034 0.0278 7.4795 9.8841 12.1923 -10.2553 -62.8920 -11.2938 -2.3713 0.6277
 2.5905 49.5152 -6.3777 -126.9383 -69.0650 -174.3433 -11.3742 13.8884 -15.0528 -16.9887 -13.1309 -2.3089 -1.0505 -21.2849 -20.3313 -5.5104 -2.3595 -12.0958 -11.5551 -1.3555 -0.8926 -0.0740 7.4104 9.7941 12.1783 -10.2316 -62.9211 -11.6078 -2.1566 1.1458
 2.5513 49.4850 -6.4000 -127.1747 -69.0312 -174.8341 -11.3381 13.9341 -15.2163 -16.8398 -12.9509 -2.3178 -1.1386 -20.9620 -19.9409 -5.5079 -2.4402 -12.0347 -11.4474 -1.3546 -0.8960 0.0486 7.4974 9.7737 12.1817 -9.2688 -62.5510 -10.9670 -2.3251 2.2025
 2.5124 49.4633 -6.4190 -127.9001 -69.0149 -175.8287 -11.5207 13.9687 -15.2048 -16.5651 -12.5895 -2.2902 -1.0619 -20.7271 -19.6082 -5.5132 -2.4002 -11.8117 -11.2058 -1.3521 -0.9079 0.0586 7.4996 9.8306 12.1886 -9.1302 -61.9486 -11.1266 -2.1083 2.5383
 2.4769 49.4553 -6.4396 -128.5339 -69.0748 -176.6499 -11.4581 14.1639 -15.3623 -16.7144 -12.7310 -2.3054 -1.0883 -20.8991 -19.6610 -5.5097 -2.4086 -11.8430 -11.1895 -1.3490 -0.9203 -0.2089 7.3347 9.8546 12.1950 -8.3280 -62.3437 -10.4057 -2.0467 2.6019
 2.4438 49.4563 -6.4590 -128.7463 -69.2444 -176.9859 -11.2336 14.0071 -15.5518 -16.6055 -12.6347 -2.3045 -1.1003 -20.5231 -19.2644 -5.5095 -2.3807 -11.8704 -11.1839 -1.3478 -0.9288 -0.0598 7.4594 9.8117 12.1851 -7.9443 -61.6571 -10.0972 -2.0914 2.5425
 2.4121 49.4653 -6.4740 -129.1208 -69.2708 -177.5204 -10.9550 14.1959 -15.4541 -16.7312 -12.7210 -2.3130 -1.1773 -20.4977 -19.1355 -5.5010 -2.4307 -11.9720 -11.2273 -1.3428 -0.9513 -0.2315 7.3706 9.8198 12.1881 -7.9871 -61.0716 -10.3031 -1.8459 2.5408
 2.3816 49.4903 -6.4887 -130.3007 -69.2847 -178.6941 -10.9973 14.2771 -15.4548 -16.6918 -12.6907 -2.3190 -1.1928 -20.0673 -18.5790 -5.5030 -2.4659 -11.8015 -11.0396 -1.3389 -0.9600 -0.2677 7.3840 9.8504 12.1853 -8.0327 -60.3676 -10.5195 -1.7843 3.2038
 2.3563 49.5227 -6.5019 -131.2786 -69.2464 -179.5315 -10.7666 14.4949 -15.3987 -16.6247 -12.5210 -2.2969 -1.1822 -19.9343 -18.2824 -5.5006 -2.5182 -11.6733 -10.8534 -1.3472 -0.9604 -0.4081 7.3038 9.8226 12.1301 -8.2336 -59.3721 -11.0243 -1.6456 4.0942
 2.3264 49.5705 -6.5116 -133.1797 -69.2879 178.7501 -10.8952 14.5178 -15.3443 -16.4214 -12.3265 -2.2819 -1.1387 -19.4878 -17.6928 -5.5035 -2.5283 -11.4487 -10.6218 -1.3399 -0.9868 -0.2717 7.4162 9.9161 12.1638 -7.6373 -58.8543 -10.4321 -1.3869 4.5218
 2.3087 49.6218 -6.5136 -134.7037 -69.2017 177.4166 -10.5445 14.7351 -15.1065 -16.5015 -12.3590 -2.2534 -1.1444 -19.2606 -17.3758 -5.4971 -2.6995 -11.5417 -10.6834 -1.3435 -0.9877 -0.3416 7.3898 10.0022 12.1350 -7.4995 -57.6568 -10.1235 -1.1833 5.1643
 2.2915 49.6852 -6.5148 -137.9802 -68.9958 174.6853 -10.8161 14.7660 -15.1894 -16.1236 -12.0004 -2.1909 -1.1495 -18.5367 -16.6387 -5.5128 -2.7283 -11.0357 -10.2148 -1.3598 -0.9826 0.1839 7.7608 10.2502 12.1421 -6.4143 -56.4668 -8.8465 -0.9869 5.6032
 2.2801 49.7578 -6.5056 -140.3550 -68.9455 172.4819 -10.6374 14.3922 -14.7509 -15.9121 -11.7967 -2.0775 -1.2308 -18.0969 -16.3133 -5.5202 -2.8637 -10.4524 -9.7705 -1.3645 -1.0102 0.5860 8.2033 10.2818 11.9277 -5.5947 -54.4565 -7.6144 -1.1354 6.0650
